<?xml version="1.0" encoding="UTF-8"?>
<svg id="Layer_1" data-name="Layer 1" xmlns="http://www.w3.org/2000/svg" viewBox="0 0 990.04 833.99">
  <path d="M458.67,519.83c3.16,54.49,20.33,108.68,50.86,154,0,0-6.89,2.87-6.89,2.87-7.25-43.25-15.81-87.75-9.06-131.73,1.59-11.17,5.33-22.19,10.48-32.15,19.43-39.09,48.93-72.91,64.84-113.49,1.91-5.57,3.37-11.07,3.15-16.62-.11-1.94-.32-3.9-.57-5.83-1.7-13.34-5.46-26.2-9.53-39.15-9.87-31.41-22.83-63.01-23.19-96.49-.09-22.5,4.41-45.18,14.26-65.48,0,0,3.92,5.59,3.92,5.59-9.42,1.38-18.42,5.24-25.74,11.32-3.22,2.55-6.11,5.91-8.4,9.31-11.13-6.39-24.71-11.82-37.24-7.32-17.35,6.56-25.31,26.83-30.61,43.41-.76,2.58-1.93,6.67-2.63,9.34-2.77,10.13-9.08,19.46-17.34,25.82-5.43,4.32-11.37,7.62-17.29,10.59l-.4-7.01s.43.13.43.13c6.34,1.72,13.02,1.64,19.51.69,10.58-1.32,21.86-7.26,31.43-11.91,0,0-6.66,11-6.66,11-8.63,13.48-23.29,21.91-38.33,26.21-4.92,1.44-9.9,2.55-14.91,3.41,0,0-.06-.27-.06-.27,4.86-1.45,9.63-3.15,14.25-5.13,13.47-5.76,26.02-14.74,32.5-28.15,0,0,4.94,5.41,4.94,5.41-13.92,6.66-30.53,10.26-45.71,5.8,0,0-8.49-2.96-8.49-2.96,19.98-9.83,34.93-16.93,40.05-40.41,10.68-39.7,33.64-70.81,77.26-46.96,0,0-4.97,1.17-4.97,1.17,2.26-3.07,4.91-5.62,7.79-8.04,8.38-6.97,18.77-11.43,29.51-13,0,0,7.42-1.1,7.42-1.1,0,0-3.49,6.69-3.49,6.69-13.77,28.86-16.77,62.48-9.44,93.53,7.71,36.21,25.23,70.08,29.21,107.24,1.17,13.33-4.61,25.65-10.05,37.21-17.23,34.4-41.26,64.75-58.56,98.85-4.91,9.54-8.26,19.42-9.79,30-7.5,48.95,4.64,98.18,11.69,146.58-4.14-6.59-11.57-17.14-15.03-23.66-5.13-9.12-9.68-18.56-13.78-28.16-15.88-37.83-26.07-80.63-25.34-121.15h0Z"/>
  <path d="M523.58,566.71c.05,13.17,1.67,26.32,3.48,39.35,2.73,19.53,6.88,38.79,12.16,57.76,3.87,12.78,7.65,25.87,8.4,39.27,2.51,31.69-9.27,60.65-31.09,83.39-20.91,21.62-47.79,36.64-75.57,47.51,23.25-12.2,45.87-25.91,64.64-44.38,29.66-28.87,41.64-64.5,32.66-105.18-1.95-9.28-5.17-19.49-7.15-28.77-3.55-16.23-6.08-32.68-7.38-49.24-.91-13.2-1.59-26.54-.16-39.71h0Z"/>
  <path d="M430.68,350.19c-48.25-13.31-86.56-51.51-94.58-101.64-.69-4.35-1.33-9.14-1.74-13.55-.91-7.19-2.14-14.55-4.05-21.49-13.47-53.06-59.96-64.26-108.3-69-23.7-2.4-47.81-2.46-71.63-3.54-67.69-4.02-116.1-37.69-141.12-101,0,0,7.34-1.68,7.34-1.68.7,11.29,2.28,22.79,4.36,33.97,4.25,22.3,10.75,44.59,21.94,64.36,4.18,7.37,9.44,14.2,14.7,20.83,5.29,6.73,10.94,13.38,16.69,19.69,11.59,12.64,24.32,24.16,38.35,34.06,9.3,6.67,19.2,12.73,28.71,19.79,13.3,9.4,24.8,22.58,35.04,35.21,0,0-13.28-4.78-13.28-4.78-42.99-16.06-85.53-34-123.55-60.06-12.72-9.28-25.37-19.22-32.67-33.86,0,0,7.22-2.36,7.22-2.36.47,2.25,1.08,4.68,1.69,7.01,6.98,26.04,17.55,51.1,30.69,74.63,4.82,8.41,9.74,16.91,15.78,24.48,24.7,31.99,64.76,41.69,101.08,55.57,0,0,23.82,9.28,23.82,9.28-31.86-2.15-65.06-5.02-96.25-11.56-21.42-4.72-51.06-11.35-67.17-26.97,0,0,6.24-4.2,6.24-4.2,1.51,3.24,3.39,6.69,5.26,9.83,21.51,35.86,55,64.2,93.49,80.39,19.86,8.86,43.29,13.3,64.65,17.31-6.26.97-23.7,4.03-29.71,4.47-19.86,1.78-39.94.85-59.51-3.09-22.42-4.53-44.23-13.5-62.31-27.77,0,0,5.48-5.23,5.48-5.23,11.6,15.47,24.82,30.03,39.05,43.13,58.7,55,138.46,69.96,215.65,79.6,9.75,1.17,19.51,2.3,29.29,3.28,9.83.86,20.05,2.42,29.57,5.4,38.77,11.49,68.93,44.54,81.02,82.61,0,0-1.88.57-1.88.57-3.37-9.08-7.98-17.81-13.29-25.94-18.21-28.5-47.87-49.74-81.58-54.73-14.46-2.03-29.35-2.87-43.9-4.69-58.78-7.07-119.14-16.17-171.65-45.3-26.28-14.5-49.61-33.92-69.55-56.28-11.49-12.26-24.61-30.95-34.6-44.71,0,0,21.11,16.29,21.11,16.29,17.11,13.5,37.77,21.97,59.1,26.28,21.37,4.24,43.71,5.03,65.29,1.98,0,0-.07,7.52-.07,7.52-58.17-10.79-111.83-46.11-142.25-97.2-4.39-6.8-11.04-22.72-14.56-30.2,0,0,15.12,15.34,15.12,15.34,3.68,3.73,8.48,6.74,13.52,9.3,26.3,12.51,55.77,17.09,84.44,21.32,11.64,1.55,23.39,2.84,35.03,3.71,0,0-1.64,7.38-1.64,7.38-37.59-14.24-78.42-24.45-104.29-57.93-6.35-7.96-11.43-16.71-16.47-25.5-9.82-17.51-18.12-35.85-24.76-54.81-2.48-7.12-4.74-14.32-6.66-21.62-1.8-5.78-6.92-32.78-8.41-38.96,0,0,13.83,29.15,13.83,29.15,2.93,6.18,7.7,11.79,12.94,16.85,16.31,15.34,36.04,26.58,55.85,37.06,26.76,13.81,54.75,25.73,83.03,36.02,0,0-4.2,6.07-4.2,6.07-14.57-18.13-34.25-29.63-53.25-42.84-19.25-13.54-36.17-30.25-51.08-48.4-5.55-6.78-11.14-13.74-16.13-20.98-14.75-22.32-22.56-48.38-27.55-74.37-2.15-11.63-3.75-23.15-4.48-35.02,0,0-1.26-21.71-1.26-21.71,7.19,16.83,14.99,36.14,25.09,51.15,26.29,41.32,70.36,61.13,118.19,63.73,36.1,1.46,72.46,1.35,107.97,9.25,23.94,5.25,48.68,16.04,63.56,36.51,11.36,15.24,16.57,33.58,18.96,52.02.74,5.75,1.1,12.07,1.98,17.77,5.76,42.02,33.76,75.74,71.3,94.25,5.31,2.61,10.78,5.06,16.39,6.87,0,0-.45,1.7-.45,1.7h0Z"/>
  <path d="M565.35,330.75c44.66-16.21,77.1-56.68,81.76-104.08,1.98-27.18,8.27-56.1,28.88-75.67,24.84-23.73,60.7-29.3,93.43-32.67,23.67-2.44,47.56-2.37,71.22-3.56,64.04-4.31,108.33-35.37,133.08-94.74,0,0,8.6-20.04,8.6-20.04,0,0-1.26,21.71-1.26,21.71-2.73,35.18-10.05,70.63-27.31,101.77-4.39,7.73-9.86,14.88-15.34,21.77-5.41,6.88-11.16,13.65-17.05,20.11-11.92,13-25.13,24.95-39.55,35.12-19,13.21-38.69,24.72-53.25,42.84,0,0-4.2-6.07-4.2-6.07,42.13-15.73,84.47-33.58,121.67-59.09,11.57-8.39,23.81-18.06,30.16-30.85,0,0,13.83-29.15,13.83-29.15-2.36,11.02-7.18,35.98-10.44,46.24-8.62,28.86-21.17,56.53-37.07,82.1-13.14,22.02-33.99,38.83-57.25,49.16-18.19,8.4-37.32,14.11-55.83,21.33,0,0-1.64-7.38-1.64-7.38,11.64-.87,23.39-2.16,35.03-3.71,28.67-4.22,58.14-8.81,84.44-21.32,5.03-2.56,9.84-5.57,13.52-9.3,0,0,15.12-15.34,15.12-15.34-3.53,7.61-10.19,23.33-14.56,30.2-30.42,51.09-84.08,86.41-142.25,97.2,0,0-.07-7.52-.07-7.52,2.53.41,5.32.73,8.02.98,19.08,1.71,38.5.82,57.27-2.97,21.32-4.31,41.98-12.78,59.1-26.28,0,0,21.1-16.29,21.1-16.29-5.99,8.13-18.35,25.73-24.7,33.2-21.76,26.59-47.67,50.02-77.77,66.84-60.14,33.75-130.15,41.61-197.57,48.79-9.6.91-19.01,1.54-28.3,3.93-33.36,7.77-58.23,33.27-69.1,65.33-1.54,4.52-2.91,9.17-3.77,13.81,0,0-1.95-.25-1.95-.25,4.18-29.22,20.56-57.26,45.95-72.95,12.68-7.97,27.24-12.61,42.01-14.59,4.09-.58,10.36-1.07,14.53-1.56,66.28-7.71,135.35-16.06,194.36-49.27,24.94-14.15,47.15-32.77,66.25-54.14,6.34-7.06,12.61-14.49,18.22-22.07,0,0,5.48,5.23,5.48,5.23-9.06,7.12-19.07,12.99-29.59,17.58-26.28,11.38-55.27,15.2-83.7,13.89-10.54-.22-27.64-3.41-38.23-5.07,0,0,21.02-4.11,21.02-4.11,29.89-5.77,58.64-17.61,83.33-35.46,24.38-17.76,45.59-40.84,59.05-67.96,0,0,6.24,4.2,6.24,4.2-9.17,8.99-20.75,13.6-32.41,17.78-34.19,11.21-69.85,15.79-105.55,18.85,0,0-25.46,1.9-25.46,1.9,0,0,23.82-9.28,23.82-9.28,36.32-13.88,76.39-23.58,101.08-55.57,11.84-15.5,20.84-33.1,29.06-50.75,7.03-15.64,13.02-31.79,17.42-48.36.61-2.34,1.21-4.76,1.69-7.01l7.22,2.36c-7.29,14.64-19.95,24.59-32.67,33.86-41.92,28.65-89.29,47.75-136.84,64.85,10.25-12.64,21.73-25.81,35.04-35.21,19-13.59,38.56-25.14,55.08-41.58,8.26-7.92,15.97-16.42,23.26-25.26,7.12-8.75,14.51-17.73,20.12-27.53,11.19-19.77,17.69-42.06,21.94-64.36,2.08-11.17,3.66-22.68,4.36-33.97,0,0,7.34,1.68,7.34,1.68-24.77,62.66-72.52,96.45-139.46,100.88-35.34,1.71-71.05,1.19-105.77,8.4-28.08,5.56-55.65,18.22-68.58,45.07-7.98,15.59-10.62,32.96-12.4,50.25-1.67,12.06-4.83,23.94-9.6,35.16-11.9,28-34.77,50.71-62.26,63.39-5.45,2.53-11.03,4.71-16.89,6.27,0,0-.47-1.69-.47-1.69h0Z"/>
</svg>